<svg width="12" height="12" viewBox="0 0 12 12" fill="none" xmlns="http://www.w3.org/2000/svg">
<path d="M9.5 2.125H0.5C0.400544 2.125 0.305161 2.16451 0.234835 2.23484C0.164509 2.30516 0.125 2.40054 0.125 2.5V11.5C0.125 11.5995 0.164509 11.6948 0.234835 11.7652C0.305161 11.8355 0.400544 11.875 0.5 11.875H9.5C9.59946 11.875 9.69484 11.8355 9.76517 11.7652C9.83549 11.6948 9.875 11.5995 9.875 11.5V2.5C9.875 2.40054 9.83549 2.30516 9.76517 2.23484C9.69484 2.16451 9.59946 2.125 9.5 2.125ZM9.125 11.125H0.875V2.875H9.125V11.125ZM11.875 0.5V9.5C11.875 9.59946 11.8355 9.69484 11.7652 9.76517C11.6948 9.83549 11.5995 9.875 11.5 9.875C11.4005 9.875 11.3052 9.83549 11.2348 9.76517C11.1645 9.69484 11.125 9.59946 11.125 9.5V0.875H2.5C2.40054 0.875 2.30516 0.835491 2.23484 0.765165C2.16451 0.694839 2.125 0.599456 2.125 0.5C2.125 0.400544 2.16451 0.305161 2.23484 0.234835C2.30516 0.164509 2.40054 0.125 2.5 0.125H11.5C11.5995 0.125 11.6948 0.164509 11.7652 0.234835C11.8355 0.305161 11.875 0.400544 11.875 0.5Z" fill="#CCCCCC"/>
</svg>
